# MagicaVoxel @ Ephtracy

# group
o 

# material
mtllib pinkSkyScraper.vox.mtl
usemtl palette

# normals
vn -1 0 0
vn 1 0 0
vn 0 0 1
vn 0 0 -1
vn 0 -1 0
vn 0 1 0

# texcoords
vt 0.212891 0.5
vt 0.841797 0.5
vt 0.978516 0.5
vt 0.986328 0.5

# verts
v -1.6 0.1 0.8
v -1.6 0.1 -0.8
v -1.6 0.3 0.8
v -1.6 0.3 -0.8
v -1.6 4.2 0.8
v -1.6 4.2 -0.8
v -1.6 4.3 0.8
v -1.6 4.3 -0.8
v -1.2 4.3 0.4
v -1.2 4.3 -0.4
v -1.2 4.4 0.4
v -1.2 4.4 -0.4
v -1.1 4.4 0.3
v -1.1 4.4 -0.3
v -1.1 4.5 0.2
v -1.1 4.5 -0.2
v -1.1 4.7 0.3
v -1.1 4.7 0.2
v -1.1 4.7 -0.2
v -1.1 4.7 -0.3
v -1.1 4.8 0.3
v -1.1 4.8 0.2
v -1.1 4.8 -0.2
v -1.1 4.8 -0.3
v -0.6 4.4 0.2
v -0.6 4.4 -0.2
v -0.6 4.5 0.3
v -0.6 4.5 0.2
v -0.6 4.5 -0.2
v -0.6 4.5 -0.3
v -0.6 4.7 0.3
v -0.6 4.7 0.2
v -0.6 4.7 -0.2
v -0.6 4.7 -0.3
v -0.6 4.8 0.3
v -0.6 4.8 0.2
v -0.6 4.8 -0.2
v -0.6 4.8 -0.3
v -1 4.4 0.2
v -1 4.4 -0.2
v -1 4.5 0.3
v -1 4.5 0.2
v -1 4.5 -0.2
v -1 4.5 -0.3
v -1 4.7 0.3
v -1 4.7 0.2
v -1 4.7 -0.2
v -1 4.7 -0.3
v -1 4.8 0.3
v -1 4.8 0.2
v -1 4.8 -0.2
v -1 4.8 -0.3
v -0.5 4.4 0.3
v -0.5 4.4 -0.3
v -0.5 4.5 0.2
v -0.5 4.5 -0.2
v -0.5 4.7 0.3
v -0.5 4.7 0.2
v -0.5 4.7 -0.2
v -0.5 4.7 -0.3
v -0.5 4.8 0.3
v -0.5 4.8 0.2
v -0.5 4.8 -0.2
v -0.5 4.8 -0.3
v -0.4 4.3 0.4
v -0.4 4.3 -0.4
v -0.4 4.4 0.4
v -0.4 4.4 -0.4
v 0 0.1 0.8
v 0 0.1 -0.8
v 0 0.3 0.8
v 0 0.3 -0.8
v 0 4.2 0.8
v 0 4.2 -0.8
v 0 4.3 0.8
v 0 4.3 -0.8
v -1.6 0.1 0.8
v -1.6 0.3 0.8
v -1.6 4.2 0.8
v -1.6 4.3 0.8
v -1.5 0.3 0.8
v -1.5 0.7 0.8
v -1.5 0.8 0.8
v -1.5 1.2 0.8
v -1.5 1.3 0.8
v -1.5 1.7 0.8
v -1.5 1.8 0.8
v -1.5 2.2 0.8
v -1.5 2.3 0.8
v -1.5 2.7 0.8
v -1.5 2.8 0.8
v -1.5 3.2 0.8
v -1.5 3.3 0.8
v -1.5 3.7 0.8
v -1.5 3.8 0.8
v -1.5 4.2 0.8
v -1.3 0.3 0.8
v -1.3 0.7 0.8
v -1.3 0.8 0.8
v -1.3 1.2 0.8
v -1.3 1.3 0.8
v -1.3 1.7 0.8
v -1.3 1.8 0.8
v -1.3 2.2 0.8
v -1.3 2.3 0.8
v -1.3 2.7 0.8
v -1.3 2.8 0.8
v -1.3 3.2 0.8
v -1.3 3.3 0.8
v -1.3 3.7 0.8
v -1.3 3.8 0.8
v -1.3 4.2 0.8
v -1.2 0.3 0.8
v -1.2 0.7 0.8
v -1.2 0.8 0.8
v -1.2 1.2 0.8
v -1.2 1.3 0.8
v -1.2 1.7 0.8
v -1.2 1.8 0.8
v -1.2 2.2 0.8
v -1.2 2.3 0.8
v -1.2 2.7 0.8
v -1.2 2.8 0.8
v -1.2 3.2 0.8
v -1.2 3.3 0.8
v -1.2 3.7 0.8
v -1.2 3.8 0.8
v -1.2 4.2 0.8
v -1 0.3 0.8
v -1 0.7 0.8
v -1 0.8 0.8
v -1 1.2 0.8
v -1 1.3 0.8
v -1 1.7 0.8
v -1 1.8 0.8
v -1 2.2 0.8
v -1 2.3 0.8
v -1 2.7 0.8
v -1 2.8 0.8
v -1 3.2 0.8
v -1 3.3 0.8
v -1 3.7 0.8
v -1 3.8 0.8
v -1 4.2 0.8
v -0.9 0.3 0.8
v -0.9 0.7 0.8
v -0.9 0.8 0.8
v -0.9 1.2 0.8
v -0.9 1.3 0.8
v -0.9 1.7 0.8
v -0.9 1.8 0.8
v -0.9 2.2 0.8
v -0.9 2.3 0.8
v -0.9 2.7 0.8
v -0.9 2.8 0.8
v -0.9 3.2 0.8
v -0.9 3.3 0.8
v -0.9 3.7 0.8
v -0.9 3.8 0.8
v -0.9 4.2 0.8
v -0.7 0.3 0.8
v -0.7 0.7 0.8
v -0.7 0.8 0.8
v -0.7 1.2 0.8
v -0.7 1.3 0.8
v -0.7 1.7 0.8
v -0.7 1.8 0.8
v -0.7 2.2 0.8
v -0.7 2.3 0.8
v -0.7 2.7 0.8
v -0.7 2.8 0.8
v -0.7 3.2 0.8
v -0.7 3.3 0.8
v -0.7 3.7 0.8
v -0.7 3.8 0.8
v -0.7 4.2 0.8
v -0.6 0.3 0.8
v -0.6 0.7 0.8
v -0.6 0.8 0.8
v -0.6 1.2 0.8
v -0.6 1.3 0.8
v -0.6 1.7 0.8
v -0.6 1.8 0.8
v -0.6 2.2 0.8
v -0.6 2.3 0.8
v -0.6 2.7 0.8
v -0.6 2.8 0.8
v -0.6 3.2 0.8
v -0.6 3.3 0.8
v -0.6 3.7 0.8
v -0.6 3.8 0.8
v -0.6 4.2 0.8
v -0.4 0.3 0.8
v -0.4 0.7 0.8
v -0.4 0.8 0.8
v -0.4 1.2 0.8
v -0.4 1.3 0.8
v -0.4 1.7 0.8
v -0.4 1.8 0.8
v -0.4 2.2 0.8
v -0.4 2.3 0.8
v -0.4 2.7 0.8
v -0.4 2.8 0.8
v -0.4 3.2 0.8
v -0.4 3.3 0.8
v -0.4 3.7 0.8
v -0.4 3.8 0.8
v -0.4 4.2 0.8
v -0.3 0.3 0.8
v -0.3 0.7 0.8
v -0.3 0.8 0.8
v -0.3 1.2 0.8
v -0.3 1.3 0.8
v -0.3 1.7 0.8
v -0.3 1.8 0.8
v -0.3 2.2 0.8
v -0.3 2.3 0.8
v -0.3 2.7 0.8
v -0.3 2.8 0.8
v -0.3 3.2 0.8
v -0.3 3.3 0.8
v -0.3 3.7 0.8
v -0.3 3.8 0.8
v -0.3 4.2 0.8
v -0.1 0.3 0.8
v -0.1 0.7 0.8
v -0.1 0.8 0.8
v -0.1 1.2 0.8
v -0.1 1.3 0.8
v -0.1 1.7 0.8
v -0.1 1.8 0.8
v -0.1 2.2 0.8
v -0.1 2.3 0.8
v -0.1 2.7 0.8
v -0.1 2.8 0.8
v -0.1 3.2 0.8
v -0.1 3.3 0.8
v -0.1 3.7 0.8
v -0.1 3.8 0.8
v -0.1 4.2 0.8
v 0 0.1 0.8
v 0 0.3 0.8
v 0 4.2 0.8
v 0 4.3 0.8
v -1.2 4.3 0.4
v -1.2 4.4 0.4
v -0.4 4.3 0.4
v -0.4 4.4 0.4
v -1.1 4.4 0.3
v -1.1 4.7 0.3
v -1.1 4.8 0.3
v -1 4.5 0.3
v -1 4.7 0.3
v -1 4.8 0.3
v -0.6 4.5 0.3
v -0.6 4.7 0.3
v -0.6 4.8 0.3
v -0.5 4.4 0.3
v -0.5 4.7 0.3
v -0.5 4.8 0.3
v -1.1 4.5 -0.2
v -1.1 4.7 -0.2
v -1.1 4.8 -0.2
v -1 4.4 -0.2
v -1 4.5 -0.2
v -1 4.7 -0.2
v -1 4.8 -0.2
v -0.6 4.4 -0.2
v -0.6 4.5 -0.2
v -0.6 4.7 -0.2
v -0.6 4.8 -0.2
v -0.5 4.5 -0.2
v -0.5 4.7 -0.2
v -0.5 4.8 -0.2
v -1.1 4.5 0.2
v -1.1 4.7 0.2
v -1.1 4.8 0.2
v -1 4.4 0.2
v -1 4.5 0.2
v -1 4.7 0.2
v -1 4.8 0.2
v -0.6 4.4 0.2
v -0.6 4.5 0.2
v -0.6 4.7 0.2
v -0.6 4.8 0.2
v -0.5 4.5 0.2
v -0.5 4.7 0.2
v -0.5 4.8 0.2
v -1.1 4.4 -0.3
v -1.1 4.7 -0.3
v -1.1 4.8 -0.3
v -1 4.5 -0.3
v -1 4.7 -0.3
v -1 4.8 -0.3
v -0.6 4.5 -0.3
v -0.6 4.7 -0.3
v -0.6 4.8 -0.3
v -0.5 4.4 -0.3
v -0.5 4.7 -0.3
v -0.5 4.8 -0.3
v -1.2 4.3 -0.4
v -1.2 4.4 -0.4
v -0.4 4.3 -0.4
v -0.4 4.4 -0.4
v -1.6 0.1 -0.8
v -1.6 0.3 -0.8
v -1.6 4.2 -0.8
v -1.6 4.3 -0.8
v 0 0.1 -0.8
v 0 0.3 -0.8
v 0 4.2 -0.8
v 0 4.3 -0.8
v -1.6 0.1 0.8
v 0 0.1 0.8
v -1.5 0.1 0.7
v -0.1 0.1 0.7
v -1.5 0.1 -0.7
v -0.1 0.1 -0.7
v -1.6 0.1 -0.8
v 0 0.1 -0.8
v -1.6 4.3 0.8
v 0 4.3 0.8
v -1.2 4.3 0.4
v -0.4 4.3 0.4
v -1.2 4.3 -0.4
v -0.4 4.3 -0.4
v -1.6 4.3 -0.8
v 0 4.3 -0.8
v -1.2 4.4 0.4
v -0.4 4.4 0.4
v -1.1 4.4 0.3
v -0.5 4.4 0.3
v -1 4.4 0.2
v -0.6 4.4 0.2
v -1 4.4 -0.2
v -0.6 4.4 -0.2
v -1.1 4.4 -0.3
v -0.5 4.4 -0.3
v -1.2 4.4 -0.4
v -0.4 4.4 -0.4
v -1 4.5 0.3
v -0.6 4.5 0.3
v -1.1 4.5 0.2
v -1 4.5 0.2
v -0.6 4.5 0.2
v -0.5 4.5 0.2
v -1.1 4.5 -0.2
v -1 4.5 -0.2
v -0.6 4.5 -0.2
v -0.5 4.5 -0.2
v -1 4.5 -0.3
v -0.6 4.5 -0.3
v -1.1 4.8 0.3
v -1 4.8 0.3
v -0.6 4.8 0.3
v -0.5 4.8 0.3
v -1.1 4.8 0.2
v -1 4.8 0.2
v -0.6 4.8 0.2
v -0.5 4.8 0.2
v -1.1 4.8 -0.2
v -1 4.8 -0.2
v -0.6 4.8 -0.2
v -0.5 4.8 -0.2
v -1.1 4.8 -0.3
v -1 4.8 -0.3
v -0.6 4.8 -0.3
v -0.5 4.8 -0.3

# faces
f 3/4/1 2/4/1 1/4/1
f 4/4/1 2/4/1 3/4/1
f 5/3/1 4/3/1 3/3/1
f 6/3/1 4/3/1 5/3/1
f 7/4/1 6/4/1 5/4/1
f 8/4/1 6/4/1 7/4/1
f 11/3/1 10/3/1 9/3/1
f 12/3/1 10/3/1 11/3/1
f 15/3/1 14/3/1 13/3/1
f 16/3/1 14/3/1 15/3/1
f 17/3/1 15/3/1 13/3/1
f 18/3/1 15/3/1 17/3/1
f 19/3/1 14/3/1 16/3/1
f 20/3/1 14/3/1 19/3/1
f 21/2/1 18/2/1 17/2/1
f 22/2/1 18/2/1 21/2/1
f 23/2/1 20/2/1 19/2/1
f 24/2/1 20/2/1 23/2/1
f 28/3/1 26/3/1 25/3/1
f 29/3/1 26/3/1 28/3/1
f 31/3/1 28/3/1 27/3/1
f 32/3/1 28/3/1 31/3/1
f 33/3/1 30/3/1 29/3/1
f 34/3/1 30/3/1 33/3/1
f 35/2/1 32/2/1 31/2/1
f 36/2/1 32/2/1 35/2/1
f 37/2/1 34/2/1 33/2/1
f 38/2/1 34/2/1 37/2/1
f 39/3/2 40/3/2 42/3/2
f 42/3/2 40/3/2 43/3/2
f 41/3/2 42/3/2 45/3/2
f 45/3/2 42/3/2 46/3/2
f 43/3/2 44/3/2 47/3/2
f 47/3/2 44/3/2 48/3/2
f 45/2/2 46/2/2 49/2/2
f 49/2/2 46/2/2 50/2/2
f 47/2/2 48/2/2 51/2/2
f 51/2/2 48/2/2 52/2/2
f 53/3/2 54/3/2 55/3/2
f 55/3/2 54/3/2 56/3/2
f 53/3/2 55/3/2 57/3/2
f 57/3/2 55/3/2 58/3/2
f 56/3/2 54/3/2 59/3/2
f 59/3/2 54/3/2 60/3/2
f 57/2/2 58/2/2 61/2/2
f 61/2/2 58/2/2 62/2/2
f 59/2/2 60/2/2 63/2/2
f 63/2/2 60/2/2 64/2/2
f 65/3/2 66/3/2 67/3/2
f 67/3/2 66/3/2 68/3/2
f 69/4/2 70/4/2 71/4/2
f 71/4/2 70/4/2 72/4/2
f 71/3/2 72/3/2 73/3/2
f 73/3/2 72/3/2 74/3/2
f 73/4/2 74/4/2 75/4/2
f 75/4/2 74/4/2 76/4/2
f 81/4/3 78/4/3 77/4/3
f 81/3/3 79/3/3 78/3/3
f 82/3/3 79/3/3 81/3/3
f 83/3/3 79/3/3 82/3/3
f 84/3/3 79/3/3 83/3/3
f 85/3/3 79/3/3 84/3/3
f 86/3/3 79/3/3 85/3/3
f 87/3/3 79/3/3 86/3/3
f 88/3/3 79/3/3 87/3/3
f 89/3/3 79/3/3 88/3/3
f 90/3/3 79/3/3 89/3/3
f 91/3/3 79/3/3 90/3/3
f 92/3/3 79/3/3 91/3/3
f 93/3/3 79/3/3 92/3/3
f 94/3/3 79/3/3 93/3/3
f 95/3/3 79/3/3 94/3/3
f 96/4/3 80/4/3 79/4/3
f 96/3/3 79/3/3 95/3/3
f 97/4/3 81/4/3 77/4/3
f 97/1/3 82/1/3 81/1/3
f 98/3/3 83/3/3 82/3/3
f 98/1/3 82/1/3 97/1/3
f 99/1/3 84/1/3 83/1/3
f 99/3/3 83/3/3 98/3/3
f 100/3/3 85/3/3 84/3/3
f 100/1/3 84/1/3 99/1/3
f 101/1/3 86/1/3 85/1/3
f 101/3/3 85/3/3 100/3/3
f 102/3/3 87/3/3 86/3/3
f 102/1/3 86/1/3 101/1/3
f 103/1/3 88/1/3 87/1/3
f 103/3/3 87/3/3 102/3/3
f 104/3/3 89/3/3 88/3/3
f 104/1/3 88/1/3 103/1/3
f 105/1/3 90/1/3 89/1/3
f 105/3/3 89/3/3 104/3/3
f 106/3/3 91/3/3 90/3/3
f 106/1/3 90/1/3 105/1/3
f 107/1/3 92/1/3 91/1/3
f 107/3/3 91/3/3 106/3/3
f 108/3/3 93/3/3 92/3/3
f 108/1/3 92/1/3 107/1/3
f 109/1/3 94/1/3 93/1/3
f 109/3/3 93/3/3 108/3/3
f 110/3/3 95/3/3 94/3/3
f 110/1/3 94/1/3 109/1/3
f 111/1/3 96/1/3 95/1/3
f 111/3/3 95/3/3 110/3/3
f 112/4/3 80/4/3 96/4/3
f 112/1/3 96/1/3 111/1/3
f 113/3/3 109/3/3 108/3/3
f 113/3/3 111/3/3 110/3/3
f 113/3/3 112/3/3 111/3/3
f 113/3/3 108/3/3 107/3/3
f 113/3/3 107/3/3 106/3/3
f 113/3/3 106/3/3 105/3/3
f 113/3/3 105/3/3 104/3/3
f 113/3/3 104/3/3 103/3/3
f 113/3/3 103/3/3 102/3/3
f 113/3/3 102/3/3 101/3/3
f 113/3/3 101/3/3 100/3/3
f 113/3/3 100/3/3 99/3/3
f 113/3/3 99/3/3 98/3/3
f 113/3/3 98/3/3 97/3/3
f 113/4/3 97/4/3 77/4/3
f 113/3/3 110/3/3 109/3/3
f 114/3/3 112/3/3 113/3/3
f 115/3/3 112/3/3 114/3/3
f 116/3/3 112/3/3 115/3/3
f 117/3/3 112/3/3 116/3/3
f 118/3/3 112/3/3 117/3/3
f 119/3/3 112/3/3 118/3/3
f 120/3/3 112/3/3 119/3/3
f 121/3/3 112/3/3 120/3/3
f 122/3/3 112/3/3 121/3/3
f 123/3/3 112/3/3 122/3/3
f 124/3/3 112/3/3 123/3/3
f 125/3/3 112/3/3 124/3/3
f 126/3/3 112/3/3 125/3/3
f 127/3/3 112/3/3 126/3/3
f 128/4/3 80/4/3 112/4/3
f 128/3/3 112/3/3 127/3/3
f 129/4/3 113/4/3 77/4/3
f 129/1/3 114/1/3 113/1/3
f 130/3/3 115/3/3 114/3/3
f 130/1/3 114/1/3 129/1/3
f 131/4/3 116/4/3 115/4/3
f 131/3/3 115/3/3 130/3/3
f 132/3/3 117/3/3 116/3/3
f 132/4/3 116/4/3 131/4/3
f 133/1/3 118/1/3 117/1/3
f 133/3/3 117/3/3 132/3/3
f 134/3/3 119/3/3 118/3/3
f 134/1/3 118/1/3 133/1/3
f 135/4/3 120/4/3 119/4/3
f 135/3/3 119/3/3 134/3/3
f 136/3/3 121/3/3 120/3/3
f 136/4/3 120/4/3 135/4/3
f 137/1/3 122/1/3 121/1/3
f 137/3/3 121/3/3 136/3/3
f 138/3/3 123/3/3 122/3/3
f 138/1/3 122/1/3 137/1/3
f 139/4/3 124/4/3 123/4/3
f 139/3/3 123/3/3 138/3/3
f 140/3/3 125/3/3 124/3/3
f 140/4/3 124/4/3 139/4/3
f 141/4/3 126/4/3 125/4/3
f 141/3/3 125/3/3 140/3/3
f 142/3/3 127/3/3 126/3/3
f 142/4/3 126/4/3 141/4/3
f 143/1/3 128/1/3 127/1/3
f 143/3/3 127/3/3 142/3/3
f 144/4/3 80/4/3 128/4/3
f 144/1/3 128/1/3 143/1/3
f 145/3/3 141/3/3 140/3/3
f 145/3/3 143/3/3 142/3/3
f 145/3/3 144/3/3 143/3/3
f 145/3/3 140/3/3 139/3/3
f 145/3/3 139/3/3 138/3/3
f 145/3/3 138/3/3 137/3/3
f 145/3/3 137/3/3 136/3/3
f 145/3/3 136/3/3 135/3/3
f 145/3/3 135/3/3 134/3/3
f 145/3/3 134/3/3 133/3/3
f 145/3/3 133/3/3 132/3/3
f 145/3/3 132/3/3 131/3/3
f 145/3/3 131/3/3 130/3/3
f 145/3/3 130/3/3 129/3/3
f 145/4/3 129/4/3 77/4/3
f 145/3/3 142/3/3 141/3/3
f 146/3/3 144/3/3 145/3/3
f 147/3/3 144/3/3 146/3/3
f 148/3/3 144/3/3 147/3/3
f 149/3/3 144/3/3 148/3/3
f 150/3/3 144/3/3 149/3/3
f 151/3/3 144/3/3 150/3/3
f 152/3/3 144/3/3 151/3/3
f 153/3/3 144/3/3 152/3/3
f 154/3/3 144/3/3 153/3/3
f 155/3/3 144/3/3 154/3/3
f 156/3/3 144/3/3 155/3/3
f 157/3/3 144/3/3 156/3/3
f 158/3/3 144/3/3 157/3/3
f 159/3/3 144/3/3 158/3/3
f 160/4/3 80/4/3 144/4/3
f 160/3/3 144/3/3 159/3/3
f 161/4/3 145/4/3 77/4/3
f 161/1/3 146/1/3 145/1/3
f 162/3/3 147/3/3 146/3/3
f 162/1/3 146/1/3 161/1/3
f 163/1/3 148/1/3 147/1/3
f 163/3/3 147/3/3 162/3/3
f 164/3/3 149/3/3 148/3/3
f 164/1/3 148/1/3 163/1/3
f 165/1/3 150/1/3 149/1/3
f 165/3/3 149/3/3 164/3/3
f 166/3/3 151/3/3 150/3/3
f 166/1/3 150/1/3 165/1/3
f 167/1/3 152/1/3 151/1/3
f 167/3/3 151/3/3 166/3/3
f 168/3/3 153/3/3 152/3/3
f 168/1/3 152/1/3 167/1/3
f 169/1/3 154/1/3 153/1/3
f 169/3/3 153/3/3 168/3/3
f 170/3/3 155/3/3 154/3/3
f 170/1/3 154/1/3 169/1/3
f 171/1/3 156/1/3 155/1/3
f 171/3/3 155/3/3 170/3/3
f 172/3/3 157/3/3 156/3/3
f 172/1/3 156/1/3 171/1/3
f 173/1/3 158/1/3 157/1/3
f 173/3/3 157/3/3 172/3/3
f 174/3/3 159/3/3 158/3/3
f 174/1/3 158/1/3 173/1/3
f 175/1/3 160/1/3 159/1/3
f 175/3/3 159/3/3 174/3/3
f 176/4/3 80/4/3 160/4/3
f 176/1/3 160/1/3 175/1/3
f 177/3/3 173/3/3 172/3/3
f 177/3/3 175/3/3 174/3/3
f 177/3/3 176/3/3 175/3/3
f 177/3/3 172/3/3 171/3/3
f 177/3/3 171/3/3 170/3/3
f 177/3/3 170/3/3 169/3/3
f 177/3/3 169/3/3 168/3/3
f 177/3/3 168/3/3 167/3/3
f 177/3/3 167/3/3 166/3/3
f 177/3/3 166/3/3 165/3/3
f 177/3/3 165/3/3 164/3/3
f 177/3/3 164/3/3 163/3/3
f 177/3/3 163/3/3 162/3/3
f 177/3/3 162/3/3 161/3/3
f 177/4/3 161/4/3 77/4/3
f 177/3/3 174/3/3 173/3/3
f 178/3/3 176/3/3 177/3/3
f 179/3/3 176/3/3 178/3/3
f 180/3/3 176/3/3 179/3/3
f 181/3/3 176/3/3 180/3/3
f 182/3/3 176/3/3 181/3/3
f 183/3/3 176/3/3 182/3/3
f 184/3/3 176/3/3 183/3/3
f 185/3/3 176/3/3 184/3/3
f 186/3/3 176/3/3 185/3/3
f 187/3/3 176/3/3 186/3/3
f 188/3/3 176/3/3 187/3/3
f 189/3/3 176/3/3 188/3/3
f 190/3/3 176/3/3 189/3/3
f 191/3/3 176/3/3 190/3/3
f 192/4/3 80/4/3 176/4/3
f 192/3/3 176/3/3 191/3/3
f 193/4/3 177/4/3 77/4/3
f 193/1/3 178/1/3 177/1/3
f 194/3/3 179/3/3 178/3/3
f 194/1/3 178/1/3 193/1/3
f 195/1/3 180/1/3 179/1/3
f 195/3/3 179/3/3 194/3/3
f 196/3/3 181/3/3 180/3/3
f 196/1/3 180/1/3 195/1/3
f 197/4/3 182/4/3 181/4/3
f 197/3/3 181/3/3 196/3/3
f 198/3/3 183/3/3 182/3/3
f 198/4/3 182/4/3 197/4/3
f 199/4/3 184/4/3 183/4/3
f 199/3/3 183/3/3 198/3/3
f 200/3/3 185/3/3 184/3/3
f 200/4/3 184/4/3 199/4/3
f 201/4/3 186/4/3 185/4/3
f 201/3/3 185/3/3 200/3/3
f 202/3/3 187/3/3 186/3/3
f 202/4/3 186/4/3 201/4/3
f 203/1/3 188/1/3 187/1/3
f 203/3/3 187/3/3 202/3/3
f 204/3/3 189/3/3 188/3/3
f 204/1/3 188/1/3 203/1/3
f 205/1/3 190/1/3 189/1/3
f 205/3/3 189/3/3 204/3/3
f 206/3/3 191/3/3 190/3/3
f 206/1/3 190/1/3 205/1/3
f 207/4/3 192/4/3 191/4/3
f 207/3/3 191/3/3 206/3/3
f 208/4/3 80/4/3 192/4/3
f 208/4/3 192/4/3 207/4/3
f 209/3/3 205/3/3 204/3/3
f 209/3/3 207/3/3 206/3/3
f 209/3/3 208/3/3 207/3/3
f 209/3/3 204/3/3 203/3/3
f 209/3/3 203/3/3 202/3/3
f 209/3/3 202/3/3 201/3/3
f 209/3/3 201/3/3 200/3/3
f 209/3/3 200/3/3 199/3/3
f 209/3/3 199/3/3 198/3/3
f 209/3/3 198/3/3 197/3/3
f 209/3/3 197/3/3 196/3/3
f 209/3/3 196/3/3 195/3/3
f 209/3/3 195/3/3 194/3/3
f 209/3/3 194/3/3 193/3/3
f 209/4/3 193/4/3 77/4/3
f 209/3/3 206/3/3 205/3/3
f 210/3/3 208/3/3 209/3/3
f 211/3/3 208/3/3 210/3/3
f 212/3/3 208/3/3 211/3/3
f 213/3/3 208/3/3 212/3/3
f 214/3/3 208/3/3 213/3/3
f 215/3/3 208/3/3 214/3/3
f 216/3/3 208/3/3 215/3/3
f 217/3/3 208/3/3 216/3/3
f 218/3/3 208/3/3 217/3/3
f 219/3/3 208/3/3 218/3/3
f 220/3/3 208/3/3 219/3/3
f 221/3/3 208/3/3 220/3/3
f 222/3/3 208/3/3 221/3/3
f 223/3/3 208/3/3 222/3/3
f 224/4/3 80/4/3 208/4/3
f 224/3/3 208/3/3 223/3/3
f 225/4/3 209/4/3 77/4/3
f 225/1/3 210/1/3 209/1/3
f 226/3/3 211/3/3 210/3/3
f 226/1/3 210/1/3 225/1/3
f 227/1/3 212/1/3 211/1/3
f 227/3/3 211/3/3 226/3/3
f 228/3/3 213/3/3 212/3/3
f 228/1/3 212/1/3 227/1/3
f 229/1/3 214/1/3 213/1/3
f 229/3/3 213/3/3 228/3/3
f 230/3/3 215/3/3 214/3/3
f 230/1/3 214/1/3 229/1/3
f 231/1/3 216/1/3 215/1/3
f 231/3/3 215/3/3 230/3/3
f 232/3/3 217/3/3 216/3/3
f 232/1/3 216/1/3 231/1/3
f 233/1/3 218/1/3 217/1/3
f 233/3/3 217/3/3 232/3/3
f 234/3/3 219/3/3 218/3/3
f 234/1/3 218/1/3 233/1/3
f 235/1/3 220/1/3 219/1/3
f 235/3/3 219/3/3 234/3/3
f 236/3/3 221/3/3 220/3/3
f 236/1/3 220/1/3 235/1/3
f 237/1/3 222/1/3 221/1/3
f 237/3/3 221/3/3 236/3/3
f 238/3/3 223/3/3 222/3/3
f 238/1/3 222/1/3 237/1/3
f 239/1/3 224/1/3 223/1/3
f 239/3/3 223/3/3 238/3/3
f 240/4/3 80/4/3 224/4/3
f 240/1/3 224/1/3 239/1/3
f 241/4/3 225/4/3 77/4/3
f 242/3/3 237/3/3 236/3/3
f 242/4/3 225/4/3 241/4/3
f 242/3/3 239/3/3 238/3/3
f 242/3/3 240/3/3 239/3/3
f 242/3/3 236/3/3 235/3/3
f 242/3/3 235/3/3 234/3/3
f 242/3/3 234/3/3 233/3/3
f 242/3/3 233/3/3 232/3/3
f 242/3/3 232/3/3 231/3/3
f 242/3/3 231/3/3 230/3/3
f 242/3/3 230/3/3 229/3/3
f 242/3/3 229/3/3 228/3/3
f 242/3/3 228/3/3 227/3/3
f 242/3/3 227/3/3 226/3/3
f 242/3/3 226/3/3 225/3/3
f 242/3/3 238/3/3 237/3/3
f 243/4/3 80/4/3 240/4/3
f 243/3/3 240/3/3 242/3/3
f 244/4/3 80/4/3 243/4/3
f 247/3/3 246/3/3 245/3/3
f 248/3/3 246/3/3 247/3/3
f 252/3/3 250/3/3 249/3/3
f 253/2/3 251/2/3 250/2/3
f 253/3/3 250/3/3 252/3/3
f 254/2/3 251/2/3 253/2/3
f 255/3/3 252/3/3 249/3/3
f 258/3/3 255/3/3 249/3/3
f 258/3/3 256/3/3 255/3/3
f 259/2/3 257/2/3 256/2/3
f 259/3/3 256/3/3 258/3/3
f 260/2/3 257/2/3 259/2/3
f 265/3/3 262/3/3 261/3/3
f 266/2/3 263/2/3 262/2/3
f 266/3/3 262/3/3 265/3/3
f 267/2/3 263/2/3 266/2/3
f 268/3/3 265/3/3 264/3/3
f 269/3/3 265/3/3 268/3/3
f 272/3/3 270/3/3 269/3/3
f 273/2/3 271/2/3 270/2/3
f 273/3/3 270/3/3 272/3/3
f 274/2/3 271/2/3 273/2/3
f 275/3/4 276/3/4 279/3/4
f 276/2/4 277/2/4 280/2/4
f 279/3/4 276/3/4 280/3/4
f 280/2/4 277/2/4 281/2/4
f 278/3/4 279/3/4 282/3/4
f 282/3/4 279/3/4 283/3/4
f 283/3/4 284/3/4 286/3/4
f 284/2/4 285/2/4 287/2/4
f 286/3/4 284/3/4 287/3/4
f 287/2/4 285/2/4 288/2/4
f 289/3/4 290/3/4 292/3/4
f 290/2/4 291/2/4 293/2/4
f 292/3/4 290/3/4 293/3/4
f 293/2/4 291/2/4 294/2/4
f 289/3/4 292/3/4 295/3/4
f 289/3/4 295/3/4 298/3/4
f 295/3/4 296/3/4 298/3/4
f 296/2/4 297/2/4 299/2/4
f 298/3/4 296/3/4 299/3/4
f 299/2/4 297/2/4 300/2/4
f 301/3/4 302/3/4 303/3/4
f 303/3/4 302/3/4 304/3/4
f 305/4/4 306/4/4 309/4/4
f 306/3/4 307/3/4 310/3/4
f 309/4/4 306/4/4 310/4/4
f 307/4/4 308/4/4 311/4/4
f 310/3/4 307/3/4 311/3/4
f 311/4/4 308/4/4 312/4/4
f 315/4/5 314/4/5 313/4/5
f 316/4/5 314/4/5 315/4/5
f 317/4/5 315/4/5 313/4/5
f 317/3/5 316/3/5 315/3/5
f 318/4/5 314/4/5 316/4/5
f 318/3/5 316/3/5 317/3/5
f 319/4/5 317/4/5 313/4/5
f 319/4/5 318/4/5 317/4/5
f 320/4/5 314/4/5 318/4/5
f 320/4/5 318/4/5 319/4/5
f 321/4/6 322/4/6 323/4/6
f 323/4/6 322/4/6 324/4/6
f 321/4/6 323/4/6 325/4/6
f 324/4/6 322/4/6 326/4/6
f 321/4/6 325/4/6 327/4/6
f 325/4/6 326/4/6 327/4/6
f 326/4/6 322/4/6 328/4/6
f 327/4/6 326/4/6 328/4/6
f 329/3/6 330/3/6 331/3/6
f 331/3/6 330/3/6 332/3/6
f 333/3/6 334/3/6 335/3/6
f 335/3/6 334/3/6 336/3/6
f 329/3/6 331/3/6 337/3/6
f 332/3/6 330/3/6 338/3/6
f 329/3/6 337/3/6 339/3/6
f 337/3/6 338/3/6 339/3/6
f 338/3/6 330/3/6 340/3/6
f 339/3/6 338/3/6 340/3/6
f 341/3/6 342/3/6 344/3/6
f 344/3/6 342/3/6 345/3/6
f 343/3/6 344/3/6 347/3/6
f 347/3/6 344/3/6 348/3/6
f 345/3/6 346/3/6 349/3/6
f 349/3/6 346/3/6 350/3/6
f 348/3/6 349/3/6 351/3/6
f 351/3/6 349/3/6 352/3/6
f 353/2/6 354/2/6 357/2/6
f 357/2/6 354/2/6 358/2/6
f 355/2/6 356/2/6 359/2/6
f 359/2/6 356/2/6 360/2/6
f 361/2/6 362/2/6 365/2/6
f 365/2/6 362/2/6 366/2/6
f 363/2/6 364/2/6 367/2/6
f 367/2/6 364/2/6 368/2/6
